<mxfile host="app.diagrams.net" modified="2020-08-24T07:52:21.421Z" agent="5.0 (Macintosh; Intel Mac OS X 10_13_6) AppleWebKit/537.36 (KHTML, like Gecko) Chrome/84.0.4147.89 Safari/537.36" etag="aLBx-cQCutghY-BLR7pc" version="13.6.4" type="github">
  <diagram id="C5RBs43oDa-KdzZeNtuy" name="Page-1">
    <mxGraphModel dx="1426" dy="793" grid="1" gridSize="10" guides="1" tooltips="1" connect="1" arrows="1" fold="1" page="1" pageScale="1" pageWidth="827" pageHeight="1169" math="0" shadow="0">
      <root>
        <mxCell id="WIyWlLk6GJQsqaUBKTNV-0" />
        <mxCell id="WIyWlLk6GJQsqaUBKTNV-1" parent="WIyWlLk6GJQsqaUBKTNV-0" />
        <mxCell id="x5yrld_NWI_ydRC22DhF-5" value="主播A" style="text;html=1;align=center;verticalAlign=middle;resizable=0;points=[];autosize=1;" vertex="1" parent="WIyWlLk6GJQsqaUBKTNV-1">
          <mxGeometry x="100" y="70" width="50" height="20" as="geometry" />
        </mxCell>
        <mxCell id="x5yrld_NWI_ydRC22DhF-6" value="主播B" style="text;html=1;align=center;verticalAlign=middle;resizable=0;points=[];autosize=1;" vertex="1" parent="WIyWlLk6GJQsqaUBKTNV-1">
          <mxGeometry x="660" y="70" width="50" height="20" as="geometry" />
        </mxCell>
        <mxCell id="x5yrld_NWI_ydRC22DhF-7" value="server" style="text;html=1;align=center;verticalAlign=middle;resizable=0;points=[];autosize=1;" vertex="1" parent="WIyWlLk6GJQsqaUBKTNV-1">
          <mxGeometry x="395" y="70" width="50" height="20" as="geometry" />
        </mxCell>
        <mxCell id="x5yrld_NWI_ydRC22DhF-40" style="edgeStyle=orthogonalEdgeStyle;rounded=0;orthogonalLoop=1;jettySize=auto;html=1;exitX=0.5;exitY=1;exitDx=0;exitDy=0;entryX=1;entryY=0.5;entryDx=0;entryDy=0;" edge="1" parent="WIyWlLk6GJQsqaUBKTNV-1" source="x5yrld_NWI_ydRC22DhF-96" target="x5yrld_NWI_ydRC22DhF-33">
          <mxGeometry relative="1" as="geometry">
            <mxPoint x="490" y="240" as="targetPoint" />
            <mxPoint x="710" y="180" as="sourcePoint" />
          </mxGeometry>
        </mxCell>
        <mxCell id="x5yrld_NWI_ydRC22DhF-50" style="edgeStyle=orthogonalEdgeStyle;rounded=0;orthogonalLoop=1;jettySize=auto;html=1;exitX=1;exitY=0.5;exitDx=0;exitDy=0;" edge="1" parent="WIyWlLk6GJQsqaUBKTNV-1" source="x5yrld_NWI_ydRC22DhF-96">
          <mxGeometry relative="1" as="geometry">
            <mxPoint x="760" y="180" as="sourcePoint" />
            <mxPoint x="480" y="299" as="targetPoint" />
            <Array as="points">
              <mxPoint x="790" y="299" />
            </Array>
          </mxGeometry>
        </mxCell>
        <mxCell id="x5yrld_NWI_ydRC22DhF-18" value="邀请消息" style="text;html=1;align=center;verticalAlign=middle;resizable=0;points=[];autosize=1;" vertex="1" parent="WIyWlLk6GJQsqaUBKTNV-1">
          <mxGeometry x="460" y="130" width="60" height="20" as="geometry" />
        </mxCell>
        <mxCell id="x5yrld_NWI_ydRC22DhF-27" value="拒绝" style="text;html=1;align=center;verticalAlign=middle;resizable=0;points=[];autosize=1;" vertex="1" parent="WIyWlLk6GJQsqaUBKTNV-1">
          <mxGeometry x="660" y="200" width="40" height="20" as="geometry" />
        </mxCell>
        <mxCell id="x5yrld_NWI_ydRC22DhF-42" style="edgeStyle=orthogonalEdgeStyle;rounded=0;orthogonalLoop=1;jettySize=auto;html=1;entryX=0;entryY=0.5;entryDx=0;entryDy=0;" edge="1" parent="WIyWlLk6GJQsqaUBKTNV-1" source="x5yrld_NWI_ydRC22DhF-30">
          <mxGeometry relative="1" as="geometry">
            <mxPoint x="650" y="150" as="targetPoint" />
          </mxGeometry>
        </mxCell>
        <mxCell id="x5yrld_NWI_ydRC22DhF-30" value="" style="ellipse;whiteSpace=wrap;html=1;aspect=fixed;" vertex="1" parent="WIyWlLk6GJQsqaUBKTNV-1">
          <mxGeometry x="407.5" y="137.5" width="25" height="25" as="geometry" />
        </mxCell>
        <mxCell id="x5yrld_NWI_ydRC22DhF-43" style="edgeStyle=orthogonalEdgeStyle;rounded=0;orthogonalLoop=1;jettySize=auto;html=1;entryX=1;entryY=0.5;entryDx=0;entryDy=0;" edge="1" parent="WIyWlLk6GJQsqaUBKTNV-1" source="x5yrld_NWI_ydRC22DhF-33" target="x5yrld_NWI_ydRC22DhF-34">
          <mxGeometry relative="1" as="geometry" />
        </mxCell>
        <mxCell id="x5yrld_NWI_ydRC22DhF-33" value="" style="ellipse;whiteSpace=wrap;html=1;aspect=fixed;" vertex="1" parent="WIyWlLk6GJQsqaUBKTNV-1">
          <mxGeometry x="407.5" y="210" width="25" height="25" as="geometry" />
        </mxCell>
        <mxCell id="x5yrld_NWI_ydRC22DhF-34" value="结束" style="whiteSpace=wrap;html=1;" vertex="1" parent="WIyWlLk6GJQsqaUBKTNV-1">
          <mxGeometry x="70" y="192.5" width="120" height="60" as="geometry" />
        </mxCell>
        <mxCell id="x5yrld_NWI_ydRC22DhF-41" style="edgeStyle=orthogonalEdgeStyle;rounded=0;orthogonalLoop=1;jettySize=auto;html=1;entryX=0;entryY=0.5;entryDx=0;entryDy=0;" edge="1" parent="WIyWlLk6GJQsqaUBKTNV-1" source="x5yrld_NWI_ydRC22DhF-35" target="x5yrld_NWI_ydRC22DhF-30">
          <mxGeometry relative="1" as="geometry" />
        </mxCell>
        <mxCell id="x5yrld_NWI_ydRC22DhF-35" value="发起pk" style="whiteSpace=wrap;html=1;" vertex="1" parent="WIyWlLk6GJQsqaUBKTNV-1">
          <mxGeometry x="70" y="120" width="120" height="60" as="geometry" />
        </mxCell>
        <mxCell id="x5yrld_NWI_ydRC22DhF-45" value="拒绝消息" style="text;html=1;align=center;verticalAlign=middle;resizable=0;points=[];autosize=1;" vertex="1" parent="WIyWlLk6GJQsqaUBKTNV-1">
          <mxGeometry x="300" y="200" width="60" height="20" as="geometry" />
        </mxCell>
        <mxCell id="x5yrld_NWI_ydRC22DhF-51" value="同意" style="text;html=1;align=center;verticalAlign=middle;resizable=0;points=[];autosize=1;" vertex="1" parent="WIyWlLk6GJQsqaUBKTNV-1">
          <mxGeometry x="660" y="280" width="40" height="20" as="geometry" />
        </mxCell>
        <mxCell id="x5yrld_NWI_ydRC22DhF-65" style="edgeStyle=orthogonalEdgeStyle;rounded=0;orthogonalLoop=1;jettySize=auto;html=1;entryX=1;entryY=0.5;entryDx=0;entryDy=0;" edge="1" parent="WIyWlLk6GJQsqaUBKTNV-1" source="x5yrld_NWI_ydRC22DhF-54" target="x5yrld_NWI_ydRC22DhF-63">
          <mxGeometry relative="1" as="geometry">
            <Array as="points">
              <mxPoint x="720" y="453" />
            </Array>
          </mxGeometry>
        </mxCell>
        <mxCell id="x5yrld_NWI_ydRC22DhF-54" value="端上合流" style="whiteSpace=wrap;html=1;" vertex="1" parent="WIyWlLk6GJQsqaUBKTNV-1">
          <mxGeometry x="650" y="350" width="120" height="60" as="geometry" />
        </mxCell>
        <mxCell id="x5yrld_NWI_ydRC22DhF-57" style="edgeStyle=orthogonalEdgeStyle;rounded=0;orthogonalLoop=1;jettySize=auto;html=1;entryX=0;entryY=0.5;entryDx=0;entryDy=0;" edge="1" parent="WIyWlLk6GJQsqaUBKTNV-1" source="x5yrld_NWI_ydRC22DhF-56" target="x5yrld_NWI_ydRC22DhF-54">
          <mxGeometry relative="1" as="geometry">
            <Array as="points">
              <mxPoint x="420" y="380" />
            </Array>
          </mxGeometry>
        </mxCell>
        <mxCell id="x5yrld_NWI_ydRC22DhF-60" style="edgeStyle=orthogonalEdgeStyle;rounded=0;orthogonalLoop=1;jettySize=auto;html=1;entryX=1;entryY=0.5;entryDx=0;entryDy=0;" edge="1" parent="WIyWlLk6GJQsqaUBKTNV-1" source="x5yrld_NWI_ydRC22DhF-56" target="x5yrld_NWI_ydRC22DhF-58">
          <mxGeometry relative="1" as="geometry">
            <Array as="points">
              <mxPoint x="420" y="380" />
              <mxPoint x="185" y="380" />
            </Array>
          </mxGeometry>
        </mxCell>
        <mxCell id="x5yrld_NWI_ydRC22DhF-56" value="createRoom&lt;br&gt;拿到roomId" style="whiteSpace=wrap;html=1;" vertex="1" parent="WIyWlLk6GJQsqaUBKTNV-1">
          <mxGeometry x="360" y="270" width="120" height="60" as="geometry" />
        </mxCell>
        <mxCell id="x5yrld_NWI_ydRC22DhF-64" style="edgeStyle=orthogonalEdgeStyle;rounded=0;orthogonalLoop=1;jettySize=auto;html=1;entryX=0;entryY=0.5;entryDx=0;entryDy=0;" edge="1" parent="WIyWlLk6GJQsqaUBKTNV-1" source="x5yrld_NWI_ydRC22DhF-58" target="x5yrld_NWI_ydRC22DhF-63">
          <mxGeometry relative="1" as="geometry">
            <Array as="points">
              <mxPoint x="120" y="453" />
            </Array>
          </mxGeometry>
        </mxCell>
        <mxCell id="x5yrld_NWI_ydRC22DhF-58" value="端上合流" style="whiteSpace=wrap;html=1;" vertex="1" parent="WIyWlLk6GJQsqaUBKTNV-1">
          <mxGeometry x="65" y="350" width="120" height="60" as="geometry" />
        </mxCell>
        <mxCell id="x5yrld_NWI_ydRC22DhF-61" value="roomId下发消息" style="text;html=1;align=center;verticalAlign=middle;resizable=0;points=[];autosize=1;" vertex="1" parent="WIyWlLk6GJQsqaUBKTNV-1">
          <mxGeometry x="460" y="360" width="100" height="20" as="geometry" />
        </mxCell>
        <mxCell id="x5yrld_NWI_ydRC22DhF-62" value="roomId下发消息" style="text;html=1;align=center;verticalAlign=middle;resizable=0;points=[];autosize=1;" vertex="1" parent="WIyWlLk6GJQsqaUBKTNV-1">
          <mxGeometry x="280" y="360" width="100" height="20" as="geometry" />
        </mxCell>
        <mxCell id="x5yrld_NWI_ydRC22DhF-99" style="edgeStyle=orthogonalEdgeStyle;rounded=0;orthogonalLoop=1;jettySize=auto;html=1;entryX=0.5;entryY=0;entryDx=0;entryDy=0;" edge="1" parent="WIyWlLk6GJQsqaUBKTNV-1" source="x5yrld_NWI_ydRC22DhF-63" target="x5yrld_NWI_ydRC22DhF-69">
          <mxGeometry relative="1" as="geometry" />
        </mxCell>
        <mxCell id="x5yrld_NWI_ydRC22DhF-63" value="" style="ellipse;whiteSpace=wrap;html=1;aspect=fixed;" vertex="1" parent="WIyWlLk6GJQsqaUBKTNV-1">
          <mxGeometry x="410" y="440" width="25" height="25" as="geometry" />
        </mxCell>
        <mxCell id="x5yrld_NWI_ydRC22DhF-66" value="fix_stream_finish 上报合流成功" style="text;html=1;align=center;verticalAlign=middle;resizable=0;points=[];autosize=1;" vertex="1" parent="WIyWlLk6GJQsqaUBKTNV-1">
          <mxGeometry x="130" y="430" width="180" height="20" as="geometry" />
        </mxCell>
        <mxCell id="x5yrld_NWI_ydRC22DhF-68" value="fix_stream_finish 上报合流成功" style="text;html=1;align=center;verticalAlign=middle;resizable=0;points=[];autosize=1;" vertex="1" parent="WIyWlLk6GJQsqaUBKTNV-1">
          <mxGeometry x="510" y="430" width="180" height="20" as="geometry" />
        </mxCell>
        <mxCell id="x5yrld_NWI_ydRC22DhF-70" style="edgeStyle=orthogonalEdgeStyle;rounded=0;orthogonalLoop=1;jettySize=auto;html=1;entryX=0;entryY=0.5;entryDx=0;entryDy=0;" edge="1" parent="WIyWlLk6GJQsqaUBKTNV-1" source="x5yrld_NWI_ydRC22DhF-69" target="x5yrld_NWI_ydRC22DhF-71">
          <mxGeometry relative="1" as="geometry">
            <mxPoint x="570" y="550" as="targetPoint" />
          </mxGeometry>
        </mxCell>
        <mxCell id="x5yrld_NWI_ydRC22DhF-74" style="edgeStyle=orthogonalEdgeStyle;rounded=0;orthogonalLoop=1;jettySize=auto;html=1;entryX=1;entryY=0.5;entryDx=0;entryDy=0;" edge="1" parent="WIyWlLk6GJQsqaUBKTNV-1" source="x5yrld_NWI_ydRC22DhF-69" target="x5yrld_NWI_ydRC22DhF-73">
          <mxGeometry relative="1" as="geometry">
            <mxPoint x="230" y="550" as="targetPoint" />
          </mxGeometry>
        </mxCell>
        <mxCell id="x5yrld_NWI_ydRC22DhF-69" value="双方都上报合流成功" style="whiteSpace=wrap;html=1;" vertex="1" parent="WIyWlLk6GJQsqaUBKTNV-1">
          <mxGeometry x="362.5" y="520" width="120" height="60" as="geometry" />
        </mxCell>
        <mxCell id="x5yrld_NWI_ydRC22DhF-77" style="edgeStyle=orthogonalEdgeStyle;rounded=0;orthogonalLoop=1;jettySize=auto;html=1;entryX=1;entryY=0.5;entryDx=0;entryDy=0;" edge="1" parent="WIyWlLk6GJQsqaUBKTNV-1" source="x5yrld_NWI_ydRC22DhF-71" target="x5yrld_NWI_ydRC22DhF-76">
          <mxGeometry relative="1" as="geometry">
            <Array as="points">
              <mxPoint x="710" y="660" />
            </Array>
          </mxGeometry>
        </mxCell>
        <mxCell id="x5yrld_NWI_ydRC22DhF-71" value="连麦成功, 分屏" style="whiteSpace=wrap;html=1;" vertex="1" parent="WIyWlLk6GJQsqaUBKTNV-1">
          <mxGeometry x="650" y="520" width="120" height="60" as="geometry" />
        </mxCell>
        <mxCell id="x5yrld_NWI_ydRC22DhF-72" value="连麦成功消息" style="text;html=1;align=center;verticalAlign=middle;resizable=0;points=[];autosize=1;" vertex="1" parent="WIyWlLk6GJQsqaUBKTNV-1">
          <mxGeometry x="480" y="530" width="90" height="20" as="geometry" />
        </mxCell>
        <mxCell id="x5yrld_NWI_ydRC22DhF-73" value="连麦成功, 分屏" style="whiteSpace=wrap;html=1;" vertex="1" parent="WIyWlLk6GJQsqaUBKTNV-1">
          <mxGeometry x="65" y="520" width="120" height="60" as="geometry" />
        </mxCell>
        <mxCell id="x5yrld_NWI_ydRC22DhF-75" value="连麦成功消息" style="text;html=1;align=center;verticalAlign=middle;resizable=0;points=[];autosize=1;" vertex="1" parent="WIyWlLk6GJQsqaUBKTNV-1">
          <mxGeometry x="270" y="530" width="90" height="20" as="geometry" />
        </mxCell>
        <mxCell id="x5yrld_NWI_ydRC22DhF-83" style="edgeStyle=orthogonalEdgeStyle;rounded=0;orthogonalLoop=1;jettySize=auto;html=1;entryX=0;entryY=0.5;entryDx=0;entryDy=0;" edge="1" parent="WIyWlLk6GJQsqaUBKTNV-1" source="x5yrld_NWI_ydRC22DhF-76" target="x5yrld_NWI_ydRC22DhF-79">
          <mxGeometry relative="1" as="geometry">
            <Array as="points">
              <mxPoint x="420" y="740" />
            </Array>
          </mxGeometry>
        </mxCell>
        <mxCell id="x5yrld_NWI_ydRC22DhF-84" style="edgeStyle=orthogonalEdgeStyle;rounded=0;orthogonalLoop=1;jettySize=auto;html=1;entryX=1;entryY=0.5;entryDx=0;entryDy=0;" edge="1" parent="WIyWlLk6GJQsqaUBKTNV-1" source="x5yrld_NWI_ydRC22DhF-76" target="x5yrld_NWI_ydRC22DhF-82">
          <mxGeometry relative="1" as="geometry">
            <Array as="points">
              <mxPoint x="420" y="740" />
            </Array>
          </mxGeometry>
        </mxCell>
        <mxCell id="x5yrld_NWI_ydRC22DhF-76" value="建立一场pk" style="whiteSpace=wrap;html=1;" vertex="1" parent="WIyWlLk6GJQsqaUBKTNV-1">
          <mxGeometry x="360" y="630" width="120" height="60" as="geometry" />
        </mxCell>
        <mxCell id="x5yrld_NWI_ydRC22DhF-78" value="发起PK请求" style="text;html=1;align=center;verticalAlign=middle;resizable=0;points=[];autosize=1;" vertex="1" parent="WIyWlLk6GJQsqaUBKTNV-1">
          <mxGeometry x="610" y="640" width="80" height="20" as="geometry" />
        </mxCell>
        <mxCell id="x5yrld_NWI_ydRC22DhF-79" value="生成血条" style="whiteSpace=wrap;html=1;" vertex="1" parent="WIyWlLk6GJQsqaUBKTNV-1">
          <mxGeometry x="650" y="710" width="120" height="60" as="geometry" />
        </mxCell>
        <mxCell id="x5yrld_NWI_ydRC22DhF-82" value="生成血条" style="whiteSpace=wrap;html=1;" vertex="1" parent="WIyWlLk6GJQsqaUBKTNV-1">
          <mxGeometry x="60" y="710" width="120" height="60" as="geometry" />
        </mxCell>
        <mxCell id="x5yrld_NWI_ydRC22DhF-85" value="PK开始消息" style="text;html=1;align=center;verticalAlign=middle;resizable=0;points=[];autosize=1;" vertex="1" parent="WIyWlLk6GJQsqaUBKTNV-1">
          <mxGeometry x="460" y="720" width="80" height="20" as="geometry" />
        </mxCell>
        <mxCell id="x5yrld_NWI_ydRC22DhF-86" value="PK开始消息" style="text;html=1;align=center;verticalAlign=middle;resizable=0;points=[];autosize=1;" vertex="1" parent="WIyWlLk6GJQsqaUBKTNV-1">
          <mxGeometry x="280" y="720" width="80" height="20" as="geometry" />
        </mxCell>
        <mxCell id="x5yrld_NWI_ydRC22DhF-90" style="edgeStyle=orthogonalEdgeStyle;rounded=0;orthogonalLoop=1;jettySize=auto;html=1;entryX=0;entryY=0.5;entryDx=0;entryDy=0;" edge="1" parent="WIyWlLk6GJQsqaUBKTNV-1" source="x5yrld_NWI_ydRC22DhF-87" target="x5yrld_NWI_ydRC22DhF-89">
          <mxGeometry relative="1" as="geometry" />
        </mxCell>
        <mxCell id="x5yrld_NWI_ydRC22DhF-94" style="edgeStyle=orthogonalEdgeStyle;rounded=0;orthogonalLoop=1;jettySize=auto;html=1;entryX=1;entryY=0.5;entryDx=0;entryDy=0;" edge="1" parent="WIyWlLk6GJQsqaUBKTNV-1" source="x5yrld_NWI_ydRC22DhF-87" target="x5yrld_NWI_ydRC22DhF-93">
          <mxGeometry relative="1" as="geometry" />
        </mxCell>
        <mxCell id="x5yrld_NWI_ydRC22DhF-87" value="监听礼物消息" style="whiteSpace=wrap;html=1;" vertex="1" parent="WIyWlLk6GJQsqaUBKTNV-1">
          <mxGeometry x="360" y="820" width="120" height="60" as="geometry" />
        </mxCell>
        <mxCell id="x5yrld_NWI_ydRC22DhF-89" value="更新血条" style="whiteSpace=wrap;html=1;" vertex="1" parent="WIyWlLk6GJQsqaUBKTNV-1">
          <mxGeometry x="650" y="820" width="120" height="60" as="geometry" />
        </mxCell>
        <mxCell id="x5yrld_NWI_ydRC22DhF-91" value="PK进行消息" style="text;html=1;align=center;verticalAlign=middle;resizable=0;points=[];autosize=1;" vertex="1" parent="WIyWlLk6GJQsqaUBKTNV-1">
          <mxGeometry x="475" y="830" width="90" height="20" as="geometry" />
        </mxCell>
        <mxCell id="x5yrld_NWI_ydRC22DhF-93" value="更新血条" style="whiteSpace=wrap;html=1;" vertex="1" parent="WIyWlLk6GJQsqaUBKTNV-1">
          <mxGeometry x="60" y="820" width="120" height="60" as="geometry" />
        </mxCell>
        <mxCell id="x5yrld_NWI_ydRC22DhF-95" value="PK进行消息" style="text;html=1;align=center;verticalAlign=middle;resizable=0;points=[];autosize=1;" vertex="1" parent="WIyWlLk6GJQsqaUBKTNV-1">
          <mxGeometry x="275" y="830" width="90" height="20" as="geometry" />
        </mxCell>
        <mxCell id="x5yrld_NWI_ydRC22DhF-96" value="同意/拒绝" style="rhombus;whiteSpace=wrap;html=1;" vertex="1" parent="WIyWlLk6GJQsqaUBKTNV-1">
          <mxGeometry x="650" y="125" width="140" height="50" as="geometry" />
        </mxCell>
        <mxCell id="x5yrld_NWI_ydRC22DhF-153" style="edgeStyle=orthogonalEdgeStyle;rounded=0;orthogonalLoop=1;jettySize=auto;html=1;entryX=1;entryY=0.5;entryDx=0;entryDy=0;" edge="1" parent="WIyWlLk6GJQsqaUBKTNV-1" source="x5yrld_NWI_ydRC22DhF-106" target="x5yrld_NWI_ydRC22DhF-109">
          <mxGeometry relative="1" as="geometry">
            <Array as="points">
              <mxPoint x="420" y="1150" />
            </Array>
          </mxGeometry>
        </mxCell>
        <mxCell id="x5yrld_NWI_ydRC22DhF-154" style="edgeStyle=orthogonalEdgeStyle;rounded=0;orthogonalLoop=1;jettySize=auto;html=1;entryX=0;entryY=0.5;entryDx=0;entryDy=0;" edge="1" parent="WIyWlLk6GJQsqaUBKTNV-1" source="x5yrld_NWI_ydRC22DhF-114" target="x5yrld_NWI_ydRC22DhF-108">
          <mxGeometry relative="1" as="geometry">
            <Array as="points">
              <mxPoint x="420" y="1150" />
            </Array>
          </mxGeometry>
        </mxCell>
        <mxCell id="x5yrld_NWI_ydRC22DhF-106" value="5min倒计时结束&lt;br&gt;更新pk状态" style="whiteSpace=wrap;html=1;" vertex="1" parent="WIyWlLk6GJQsqaUBKTNV-1">
          <mxGeometry x="360" y="1040" width="120" height="60" as="geometry" />
        </mxCell>
        <mxCell id="x5yrld_NWI_ydRC22DhF-108" value="进入惩罚阶段" style="whiteSpace=wrap;html=1;" vertex="1" parent="WIyWlLk6GJQsqaUBKTNV-1">
          <mxGeometry x="650" y="1120" width="120" height="60" as="geometry" />
        </mxCell>
        <mxCell id="x5yrld_NWI_ydRC22DhF-109" value="&lt;span style=&quot;font-size: 13.3333px&quot;&gt;进入惩罚阶段&lt;/span&gt;" style="whiteSpace=wrap;html=1;" vertex="1" parent="WIyWlLk6GJQsqaUBKTNV-1">
          <mxGeometry x="50" y="1120" width="120" height="60" as="geometry" />
        </mxCell>
        <mxCell id="x5yrld_NWI_ydRC22DhF-117" style="edgeStyle=orthogonalEdgeStyle;rounded=0;orthogonalLoop=1;jettySize=auto;html=1;entryX=0.5;entryY=0;entryDx=0;entryDy=0;" edge="1" parent="WIyWlLk6GJQsqaUBKTNV-1" source="x5yrld_NWI_ydRC22DhF-116" target="x5yrld_NWI_ydRC22DhF-87">
          <mxGeometry relative="1" as="geometry" />
        </mxCell>
        <mxCell id="x5yrld_NWI_ydRC22DhF-116" value="" style="ellipse;shape=cloud;whiteSpace=wrap;html=1;" vertex="1" parent="WIyWlLk6GJQsqaUBKTNV-1">
          <mxGeometry x="294" y="760" width="46" height="30" as="geometry" />
        </mxCell>
        <mxCell id="x5yrld_NWI_ydRC22DhF-123" style="edgeStyle=orthogonalEdgeStyle;rounded=0;orthogonalLoop=1;jettySize=auto;html=1;" edge="1" parent="WIyWlLk6GJQsqaUBKTNV-1" source="x5yrld_NWI_ydRC22DhF-118" target="x5yrld_NWI_ydRC22DhF-121">
          <mxGeometry relative="1" as="geometry" />
        </mxCell>
        <mxCell id="x5yrld_NWI_ydRC22DhF-124" style="edgeStyle=orthogonalEdgeStyle;rounded=0;orthogonalLoop=1;jettySize=auto;html=1;entryX=1;entryY=0.5;entryDx=0;entryDy=0;" edge="1" parent="WIyWlLk6GJQsqaUBKTNV-1" source="x5yrld_NWI_ydRC22DhF-118" target="x5yrld_NWI_ydRC22DhF-122">
          <mxGeometry relative="1" as="geometry" />
        </mxCell>
        <mxCell id="x5yrld_NWI_ydRC22DhF-118" value="2min倒计时&lt;br&gt;更新pk状态&lt;br&gt;惩罚结束" style="whiteSpace=wrap;html=1;" vertex="1" parent="WIyWlLk6GJQsqaUBKTNV-1">
          <mxGeometry x="360" y="1240" width="120" height="60" as="geometry" />
        </mxCell>
        <mxCell id="x5yrld_NWI_ydRC22DhF-121" value="进入大屏" style="whiteSpace=wrap;html=1;" vertex="1" parent="WIyWlLk6GJQsqaUBKTNV-1">
          <mxGeometry x="650" y="1240" width="120" height="60" as="geometry" />
        </mxCell>
        <mxCell id="x5yrld_NWI_ydRC22DhF-122" value="进入大屏" style="whiteSpace=wrap;html=1;" vertex="1" parent="WIyWlLk6GJQsqaUBKTNV-1">
          <mxGeometry x="50" y="1240" width="120" height="60" as="geometry" />
        </mxCell>
        <mxCell id="x5yrld_NWI_ydRC22DhF-127" value="PK结束消息" style="text;html=1;align=center;verticalAlign=middle;resizable=0;points=[];autosize=1;" vertex="1" parent="WIyWlLk6GJQsqaUBKTNV-1">
          <mxGeometry x="482.5" y="1250" width="80" height="20" as="geometry" />
        </mxCell>
        <mxCell id="x5yrld_NWI_ydRC22DhF-128" value="PK结束消息" style="text;html=1;align=center;verticalAlign=middle;resizable=0;points=[];autosize=1;" vertex="1" parent="WIyWlLk6GJQsqaUBKTNV-1">
          <mxGeometry x="285" y="1250" width="80" height="20" as="geometry" />
        </mxCell>
        <mxCell id="x5yrld_NWI_ydRC22DhF-131" style="edgeStyle=orthogonalEdgeStyle;rounded=0;orthogonalLoop=1;jettySize=auto;html=1;" edge="1" parent="WIyWlLk6GJQsqaUBKTNV-1" source="x5yrld_NWI_ydRC22DhF-129" target="x5yrld_NWI_ydRC22DhF-130">
          <mxGeometry relative="1" as="geometry" />
        </mxCell>
        <mxCell id="x5yrld_NWI_ydRC22DhF-129" value="PK进行中提前结束" style="whiteSpace=wrap;html=1;" vertex="1" parent="WIyWlLk6GJQsqaUBKTNV-1">
          <mxGeometry x="650" y="1340" width="120" height="60" as="geometry" />
        </mxCell>
        <mxCell id="x5yrld_NWI_ydRC22DhF-135" style="edgeStyle=orthogonalEdgeStyle;rounded=0;orthogonalLoop=1;jettySize=auto;html=1;entryX=1;entryY=0.5;entryDx=0;entryDy=0;" edge="1" parent="WIyWlLk6GJQsqaUBKTNV-1" source="x5yrld_NWI_ydRC22DhF-130" target="x5yrld_NWI_ydRC22DhF-134">
          <mxGeometry relative="1" as="geometry">
            <Array as="points">
              <mxPoint x="415" y="1520" />
            </Array>
          </mxGeometry>
        </mxCell>
        <mxCell id="x5yrld_NWI_ydRC22DhF-155" style="edgeStyle=orthogonalEdgeStyle;rounded=0;orthogonalLoop=1;jettySize=auto;html=1;entryX=0;entryY=0.5;entryDx=0;entryDy=0;" edge="1" parent="WIyWlLk6GJQsqaUBKTNV-1" source="x5yrld_NWI_ydRC22DhF-130" target="x5yrld_NWI_ydRC22DhF-133">
          <mxGeometry relative="1" as="geometry">
            <Array as="points">
              <mxPoint x="415" y="1520" />
            </Array>
          </mxGeometry>
        </mxCell>
        <mxCell id="x5yrld_NWI_ydRC22DhF-130" value="更新pk状态&lt;br&gt;更新连麦状态&lt;br&gt;更新用户惩罚状态" style="whiteSpace=wrap;html=1;" vertex="1" parent="WIyWlLk6GJQsqaUBKTNV-1">
          <mxGeometry x="355" y="1410" width="120" height="60" as="geometry" />
        </mxCell>
        <mxCell id="x5yrld_NWI_ydRC22DhF-133" value="进入大屏" style="whiteSpace=wrap;html=1;" vertex="1" parent="WIyWlLk6GJQsqaUBKTNV-1">
          <mxGeometry x="650" y="1490" width="120" height="60" as="geometry" />
        </mxCell>
        <mxCell id="x5yrld_NWI_ydRC22DhF-134" value="进入大屏" style="whiteSpace=wrap;html=1;" vertex="1" parent="WIyWlLk6GJQsqaUBKTNV-1">
          <mxGeometry x="50" y="1490" width="120" height="60" as="geometry" />
        </mxCell>
        <mxCell id="x5yrld_NWI_ydRC22DhF-139" value="PK提前结束消息" style="text;html=1;align=center;verticalAlign=middle;resizable=0;points=[];autosize=1;" vertex="1" parent="WIyWlLk6GJQsqaUBKTNV-1">
          <mxGeometry x="260" y="1500" width="100" height="20" as="geometry" />
        </mxCell>
        <mxCell id="x5yrld_NWI_ydRC22DhF-138" value="PK提前结束消息" style="text;html=1;align=center;verticalAlign=middle;resizable=0;points=[];autosize=1;" vertex="1" parent="WIyWlLk6GJQsqaUBKTNV-1">
          <mxGeometry x="460" y="1500" width="100" height="20" as="geometry" />
        </mxCell>
        <mxCell id="x5yrld_NWI_ydRC22DhF-115" value="PK结果消息" style="text;html=1;align=center;verticalAlign=middle;resizable=0;points=[];autosize=1;" vertex="1" parent="WIyWlLk6GJQsqaUBKTNV-1">
          <mxGeometry x="290" y="1130" width="80" height="20" as="geometry" />
        </mxCell>
        <mxCell id="x5yrld_NWI_ydRC22DhF-159" style="edgeStyle=orthogonalEdgeStyle;rounded=0;orthogonalLoop=1;jettySize=auto;html=1;entryX=1;entryY=0.5;entryDx=0;entryDy=0;" edge="1" parent="WIyWlLk6GJQsqaUBKTNV-1" source="x5yrld_NWI_ydRC22DhF-157" target="x5yrld_NWI_ydRC22DhF-158">
          <mxGeometry relative="1" as="geometry" />
        </mxCell>
        <mxCell id="x5yrld_NWI_ydRC22DhF-157" value="再来一局" style="whiteSpace=wrap;html=1;" vertex="1" parent="WIyWlLk6GJQsqaUBKTNV-1">
          <mxGeometry x="650" y="1610" width="120" height="60" as="geometry" />
        </mxCell>
        <mxCell id="x5yrld_NWI_ydRC22DhF-161" style="edgeStyle=orthogonalEdgeStyle;rounded=0;orthogonalLoop=1;jettySize=auto;html=1;entryX=1;entryY=0.5;entryDx=0;entryDy=0;" edge="1" parent="WIyWlLk6GJQsqaUBKTNV-1" source="x5yrld_NWI_ydRC22DhF-168" target="x5yrld_NWI_ydRC22DhF-170">
          <mxGeometry relative="1" as="geometry">
            <mxPoint x="170" y="1640" as="targetPoint" />
            <Array as="points" />
          </mxGeometry>
        </mxCell>
        <mxCell id="x5yrld_NWI_ydRC22DhF-158" value="状态校验&lt;br&gt;当前是平局的惩罚阶段&lt;br&gt;or&lt;br&gt;当前pk结束" style="whiteSpace=wrap;html=1;" vertex="1" parent="WIyWlLk6GJQsqaUBKTNV-1">
          <mxGeometry x="349" y="1610" width="130" height="60" as="geometry" />
        </mxCell>
        <mxCell id="x5yrld_NWI_ydRC22DhF-166" value="" style="endArrow=none;html=1;" edge="1" parent="WIyWlLk6GJQsqaUBKTNV-1">
          <mxGeometry width="50" height="50" relative="1" as="geometry">
            <mxPoint x="240" y="2040" as="sourcePoint" />
            <mxPoint x="240" y="80" as="targetPoint" />
          </mxGeometry>
        </mxCell>
        <mxCell id="x5yrld_NWI_ydRC22DhF-167" value="" style="endArrow=none;html=1;" edge="1" parent="WIyWlLk6GJQsqaUBKTNV-1">
          <mxGeometry width="50" height="50" relative="1" as="geometry">
            <mxPoint x="600" y="2040" as="sourcePoint" />
            <mxPoint x="600" y="80" as="targetPoint" />
          </mxGeometry>
        </mxCell>
        <mxCell id="x5yrld_NWI_ydRC22DhF-114" value="PK结果消息" style="text;html=1;align=center;verticalAlign=middle;resizable=0;points=[];autosize=1;" vertex="1" parent="WIyWlLk6GJQsqaUBKTNV-1">
          <mxGeometry x="470" y="1130" width="80" height="20" as="geometry" />
        </mxCell>
        <mxCell id="x5yrld_NWI_ydRC22DhF-173" style="edgeStyle=orthogonalEdgeStyle;rounded=0;orthogonalLoop=1;jettySize=auto;html=1;entryX=0;entryY=0.5;entryDx=0;entryDy=0;" edge="1" parent="WIyWlLk6GJQsqaUBKTNV-1" source="x5yrld_NWI_ydRC22DhF-170" target="x5yrld_NWI_ydRC22DhF-172">
          <mxGeometry relative="1" as="geometry">
            <Array as="points">
              <mxPoint x="110" y="1730" />
            </Array>
          </mxGeometry>
        </mxCell>
        <mxCell id="x5yrld_NWI_ydRC22DhF-177" value="接受" style="edgeLabel;html=1;align=center;verticalAlign=middle;resizable=0;points=[];" vertex="1" connectable="0" parent="x5yrld_NWI_ydRC22DhF-173">
          <mxGeometry x="-0.7246" relative="1" as="geometry">
            <mxPoint x="15" y="-10" as="offset" />
          </mxGeometry>
        </mxCell>
        <mxCell id="x5yrld_NWI_ydRC22DhF-184" style="edgeStyle=orthogonalEdgeStyle;rounded=0;orthogonalLoop=1;jettySize=auto;html=1;" edge="1" parent="WIyWlLk6GJQsqaUBKTNV-1" source="x5yrld_NWI_ydRC22DhF-170">
          <mxGeometry relative="1" as="geometry">
            <mxPoint x="30" y="1640" as="targetPoint" />
          </mxGeometry>
        </mxCell>
        <mxCell id="x5yrld_NWI_ydRC22DhF-170" value="接受/拒绝" style="rhombus;whiteSpace=wrap;html=1;" vertex="1" parent="WIyWlLk6GJQsqaUBKTNV-1">
          <mxGeometry x="70" y="1600" width="80" height="80" as="geometry" />
        </mxCell>
        <mxCell id="x5yrld_NWI_ydRC22DhF-182" style="edgeStyle=orthogonalEdgeStyle;rounded=0;orthogonalLoop=1;jettySize=auto;html=1;entryX=1;entryY=0.5;entryDx=0;entryDy=0;" edge="1" parent="WIyWlLk6GJQsqaUBKTNV-1" source="x5yrld_NWI_ydRC22DhF-172" target="x5yrld_NWI_ydRC22DhF-181">
          <mxGeometry relative="1" as="geometry">
            <Array as="points">
              <mxPoint x="414" y="1800" />
            </Array>
          </mxGeometry>
        </mxCell>
        <mxCell id="x5yrld_NWI_ydRC22DhF-183" style="edgeStyle=orthogonalEdgeStyle;rounded=0;orthogonalLoop=1;jettySize=auto;html=1;entryX=0;entryY=0.5;entryDx=0;entryDy=0;" edge="1" parent="WIyWlLk6GJQsqaUBKTNV-1" source="x5yrld_NWI_ydRC22DhF-172" target="x5yrld_NWI_ydRC22DhF-180">
          <mxGeometry relative="1" as="geometry">
            <Array as="points">
              <mxPoint x="414" y="1800" />
            </Array>
          </mxGeometry>
        </mxCell>
        <mxCell id="x5yrld_NWI_ydRC22DhF-172" value="生成一场PK" style="whiteSpace=wrap;html=1;" vertex="1" parent="WIyWlLk6GJQsqaUBKTNV-1">
          <mxGeometry x="354" y="1700" width="120" height="60" as="geometry" />
        </mxCell>
        <mxCell id="x5yrld_NWI_ydRC22DhF-168" value="再来一局邀请消息" style="text;html=1;align=center;verticalAlign=middle;resizable=0;points=[];autosize=1;" vertex="1" parent="WIyWlLk6GJQsqaUBKTNV-1">
          <mxGeometry x="200" y="1630" width="110" height="20" as="geometry" />
        </mxCell>
        <mxCell id="x5yrld_NWI_ydRC22DhF-178" style="edgeStyle=orthogonalEdgeStyle;rounded=0;orthogonalLoop=1;jettySize=auto;html=1;entryX=1;entryY=0.5;entryDx=0;entryDy=0;" edge="1" parent="WIyWlLk6GJQsqaUBKTNV-1" source="x5yrld_NWI_ydRC22DhF-158" target="x5yrld_NWI_ydRC22DhF-168">
          <mxGeometry relative="1" as="geometry">
            <mxPoint x="349" y="1640" as="sourcePoint" />
            <mxPoint x="150" y="1640" as="targetPoint" />
            <Array as="points" />
          </mxGeometry>
        </mxCell>
        <mxCell id="x5yrld_NWI_ydRC22DhF-180" value="生成血条" style="whiteSpace=wrap;html=1;" vertex="1" parent="WIyWlLk6GJQsqaUBKTNV-1">
          <mxGeometry x="660" y="1770" width="120" height="60" as="geometry" />
        </mxCell>
        <mxCell id="x5yrld_NWI_ydRC22DhF-181" value="生成血条" style="whiteSpace=wrap;html=1;" vertex="1" parent="WIyWlLk6GJQsqaUBKTNV-1">
          <mxGeometry x="50" y="1770" width="120" height="60" as="geometry" />
        </mxCell>
        <mxCell id="x5yrld_NWI_ydRC22DhF-185" value="拒绝" style="text;html=1;align=center;verticalAlign=middle;resizable=0;points=[];autosize=1;" vertex="1" parent="WIyWlLk6GJQsqaUBKTNV-1">
          <mxGeometry x="35" y="1620" width="40" height="20" as="geometry" />
        </mxCell>
        <mxCell id="x5yrld_NWI_ydRC22DhF-186" value="PK开始消息" style="text;html=1;align=center;verticalAlign=middle;resizable=0;points=[];autosize=1;" vertex="1" parent="WIyWlLk6GJQsqaUBKTNV-1">
          <mxGeometry x="240" y="1780" width="80" height="20" as="geometry" />
        </mxCell>
        <mxCell id="x5yrld_NWI_ydRC22DhF-187" value="PK开始消息" style="text;html=1;align=center;verticalAlign=middle;resizable=0;points=[];autosize=1;" vertex="1" parent="WIyWlLk6GJQsqaUBKTNV-1">
          <mxGeometry x="480" y="1780" width="80" height="20" as="geometry" />
        </mxCell>
      </root>
    </mxGraphModel>
  </diagram>
</mxfile>
